<svg width="391" height="483" viewBox="0 0 391 483" fill="none" xmlns="http://www.w3.org/2000/svg">
<path fill-rule="evenodd" clip-rule="evenodd" d="M82.0945 190.704C82.0945 190.704 13.3105 235.691 12.0065 312.299C11.3545 355.004 37.7597 383.365 46.8875 390.211C46.8875 390.211 14.2884 334.14 39.0637 290.458C63.839 246.775 98.72 232.757 98.72 232.757L82.0945 190.704Z" fill="#88ADD8"/>
<path fill-rule="evenodd" clip-rule="evenodd" d="M137.187 104.969L160.658 34.555C160.658 34.555 223.248 65.5241 266.605 165.929C309.962 266.334 253.239 343.594 225.856 366.739C225.856 366.739 252.587 299.585 252.587 257.207C252.913 217.11 217.706 150.608 137.187 104.969Z" fill="#88ADD8"/>
<path d="M111.107 379.779L118.605 0L130.015 376.519L111.107 379.779Z" fill="#88ADD8"/>
<path fill-rule="evenodd" clip-rule="evenodd" d="M0.270508 405.532C0.270508 405.532 126.429 347.832 390.481 370.977C390.481 370.977 380.702 487.356 251.283 481.814C251.283 481.814 351.362 455.409 343.539 373.911C343.213 373.585 157.724 371.629 0.270508 405.532Z" fill="#88ADD8"/>
</svg>
