<svg width="266" height="329" viewBox="0 0 266 329" fill="none" xmlns="http://www.w3.org/2000/svg">
<path fill-rule="evenodd" clip-rule="evenodd" d="M55.8474 130.248C55.8474 130.248 9.08864 160.829 8.20222 212.906C7.75901 241.937 25.709 261.216 31.914 265.87C31.914 265.87 9.75345 227.754 26.5955 198.059C43.4375 168.364 67.1492 158.835 67.1492 158.835L55.8474 130.248Z" fill="#88ADD8" fill-opacity="0.1"/>
<path fill-rule="evenodd" clip-rule="evenodd" d="M93.2986 71.9656L109.254 24.0989C109.254 24.0989 151.802 45.1514 181.276 113.406C210.749 181.66 172.19 234.181 153.575 249.915C153.575 249.915 171.747 204.264 171.747 175.455C171.969 148.198 148.035 102.99 93.2986 71.9656Z" fill="#88ADD8" fill-opacity="0.1"/>
<path d="M75.5702 258.779L80.6671 0.608643L88.4233 256.563L75.5702 258.779Z" fill="#88ADD8" fill-opacity="0.1"/>
<path fill-rule="evenodd" clip-rule="evenodd" d="M0.224365 276.286C0.224365 276.286 85.9856 237.062 265.486 252.796C265.486 252.796 258.838 331.909 170.86 328.142C170.86 328.142 238.893 310.191 233.575 254.79C233.353 254.569 107.26 253.239 0.224365 276.286Z" fill="#88ADD8" fill-opacity="0.1"/>
</svg>
