<svg width="274" height="47" viewBox="0 0 274 47" fill="none" xmlns="http://www.w3.org/2000/svg">
<path d="M74.6802 8.90405H46.6248V44.2929H74.6802V8.90405Z" fill="#2C3C54"/>
<path d="M199.147 8.84668H171.092V44.3501H199.147V8.84668Z" fill="#2C3C54"/>
<path fill-rule="evenodd" clip-rule="evenodd" d="M7.8187 18.4097C7.8187 18.4097 1.20728 22.7045 1.0923 30.0342C1.03481 34.0999 3.5644 36.7913 4.42676 37.4785C4.42676 37.4785 1.32227 32.153 3.67938 27.9727C6.03649 23.7925 9.42843 22.4754 9.42843 22.4754L7.8187 18.4097Z" fill="#5575A3"/>
<path fill-rule="evenodd" clip-rule="evenodd" d="M13.1078 10.2211L15.35 3.46399C15.35 3.46399 21.329 6.44169 25.5258 16.0047C29.7226 25.5677 24.261 32.9547 21.6165 35.188C21.6165 35.188 24.2035 28.7745 24.2035 24.766C24.2035 20.9294 20.8116 14.5731 13.1078 10.2211Z" fill="#5575A3"/>
<path d="M10.6357 36.4478L11.3256 0.199951L12.4179 36.1042L10.6357 36.4478Z" fill="#5575A3"/>
<path fill-rule="evenodd" clip-rule="evenodd" d="M0 38.9101C0 38.9101 12.073 33.4128 37.3689 35.5888C37.3689 35.5888 36.449 46.6979 24.0311 46.1826C24.0311 46.1826 33.632 43.663 32.8846 35.8751C32.8271 35.8751 15.12 35.6461 0 38.9101Z" fill="#5575A3"/>
<path d="M49.2694 40.0553H52.3164C53.0638 40.0553 53.4662 39.6545 53.4662 38.91V14.0004C53.4662 13.5996 53.3512 13.3133 53.1788 13.1415C53.0063 12.9697 52.7188 12.8551 52.3164 12.8551H49.2694V11.5381H63.0097C64.6769 11.5381 66.2291 11.8244 67.6664 12.4543C69.1037 13.0842 70.2535 13.9432 71.1158 14.9739C71.9782 16.0619 72.4381 17.2644 72.4381 18.6388C72.4381 20.5285 71.8057 22.1318 70.4834 23.3344C69.2186 24.5942 67.6664 25.3386 65.9992 25.7394V25.9112C67.149 25.9685 68.2988 26.3693 69.4486 26.9992C70.5984 27.6291 71.5183 28.4881 72.2656 29.5761C73.013 30.6641 73.358 31.9239 73.358 33.241C73.358 34.9589 72.898 36.3905 72.0357 37.6503C71.1158 38.91 69.9085 39.8263 68.4138 40.4562C66.919 41.0861 65.2518 41.3724 63.4696 41.3724H49.2694V40.0553ZM62.8372 25.1095C65.1368 25.1095 66.6891 24.5369 67.4939 23.3916C68.2988 22.2464 68.7587 20.643 68.7587 18.696C68.7587 17.0354 68.2413 15.6611 67.149 14.5158C66.0567 13.4278 64.7344 12.8551 63.1821 12.8551H58.4679C58.0655 12.8551 57.778 12.9697 57.6055 13.1415C57.4331 13.3133 57.3181 13.5996 57.3181 14.0004V25.1095H62.8372ZM63.0097 40.0553C64.7344 40.0553 66.1141 39.5399 67.264 38.5092C68.3563 37.4785 68.9312 35.7606 68.9312 33.241C68.9312 30.7786 68.3563 29.0035 67.264 27.9727C66.1716 26.942 64.7344 26.4266 63.0097 26.4266H57.3181V38.91C57.3181 39.6545 57.7205 40.0553 58.4679 40.0553H63.0097V40.0553Z" fill="white"/>
<path d="M77.2673 40.7998C76.175 40.0554 75.6576 38.7956 75.6576 36.9632C75.6576 35.5316 76.0025 34.4436 76.7499 33.5846C77.4973 32.7829 78.3022 32.2103 79.2795 31.8667C80.2568 31.5231 81.4066 31.2368 82.7864 30.9505L86.6383 30.2633V26.713C86.6383 24.1361 85.316 22.8191 82.7289 22.8191C81.7516 22.8191 80.8892 23.0481 80.1418 23.5635C79.337 24.0789 78.9346 24.5942 78.9346 25.2241C78.9346 25.5105 78.992 25.7395 79.0495 25.854C79.107 25.9113 79.222 26.0258 79.337 26.0831C79.452 26.1404 79.567 26.1976 79.6819 26.2549C80.1993 26.3694 80.6018 26.5985 80.8317 26.8275C81.1192 27.0566 81.2342 27.4574 81.2342 27.8583C81.2342 28.4309 81.0617 28.889 80.7168 29.1181C80.3718 29.3471 79.9119 29.5189 79.3945 29.5189C78.7621 29.5189 78.1872 29.2899 77.7272 28.8317C77.2098 28.3736 76.9799 27.6865 76.9799 26.7703C76.9799 25.7395 77.2673 24.8233 77.8422 24.0789C78.4171 23.3344 79.1645 22.7618 80.0844 22.361C81.0042 21.9601 81.9241 21.7883 82.9014 21.7883C84.7411 21.7883 86.3508 22.2464 87.7306 23.2199C89.0529 24.1934 89.7428 25.6822 89.7428 27.7437V38.0512C89.7428 39.4255 90.2027 40.1699 91.0651 40.1699C91.7549 40.1699 92.2724 39.7691 92.5598 38.9674C92.8473 38.1657 93.0197 37.135 93.0197 35.9897H93.7671C93.7671 37.6503 93.5372 39.0819 93.0197 40.2272C92.5023 41.3725 91.64 41.9451 90.3752 41.9451C89.1679 41.9451 88.248 41.6015 87.6731 40.8571C87.0407 40.1699 86.7533 39.1392 86.6958 37.8794L86.4658 37.8221C86.0634 38.7956 85.3735 39.7118 84.3962 40.628C83.4763 41.487 82.3265 41.9451 81.0617 41.9451C79.6244 41.8878 78.3596 41.5442 77.2673 40.7998ZM84.7986 38.9101C85.4885 37.9366 86.1784 36.6768 86.6958 35.1307V31.1223L83.0164 31.924C81.6941 32.2103 80.7168 32.7829 80.0844 33.5846C79.452 34.3863 79.1645 35.5888 79.1645 37.0777C79.1645 38.3375 79.452 39.2537 79.9694 39.7118C80.4868 40.1699 81.1192 40.399 81.8091 40.399C83.0739 40.399 84.0512 39.8836 84.7986 38.9101Z" fill="#2C3C54"/>
<path d="M94.457 40.3989H96.6417C96.9866 40.3989 97.2166 40.3416 97.3316 40.1699C97.4465 40.0553 97.5615 39.769 97.5615 39.4827V13.4278C97.5615 13.0842 97.504 12.8552 97.3316 12.7406C97.2166 12.6261 96.9291 12.5116 96.6417 12.5116H94.457V11.4808H100.609V39.4254C100.609 39.769 100.666 39.9981 100.838 40.1126C100.953 40.2271 101.241 40.3416 101.528 40.3416H103.713V41.3724H94.457V40.3989Z" fill="#2C3C54"/>
<path d="M104.978 40.3989H107.162C107.507 40.3989 107.737 40.3416 107.852 40.1699C107.967 40.0553 108.082 39.769 108.082 39.4827V13.4278C108.082 13.0842 108.025 12.8552 107.852 12.7406C107.737 12.6261 107.45 12.5116 107.162 12.5116H104.978V11.4808H111.129V39.4254C111.129 39.769 111.187 39.9981 111.359 40.1126C111.474 40.2271 111.762 40.3416 112.049 40.3416H114.234V41.3724H104.978V40.3989Z" fill="#2C3C54"/>
<path d="M117.396 40.7998C116.303 40.0554 115.786 38.7956 115.786 36.9632C115.786 35.5316 116.131 34.4436 116.878 33.5846C117.626 32.7829 118.431 32.2103 119.408 31.8667C120.385 31.5231 121.535 31.2368 122.915 30.9505L126.767 30.2633V26.713C126.767 24.1361 125.444 22.8191 122.857 22.8191C121.88 22.8191 121.018 23.0481 120.27 23.5635C119.465 24.0789 119.063 24.5942 119.063 25.2241C119.063 25.5105 119.12 25.7395 119.178 25.854C119.235 25.9113 119.35 26.0258 119.465 26.0831C119.58 26.1404 119.695 26.1976 119.81 26.2549C120.328 26.3694 120.73 26.5985 120.96 26.8275C121.248 27.0566 121.363 27.4574 121.363 27.8583C121.363 28.4309 121.19 28.889 120.845 29.1181C120.5 29.3471 120.04 29.5189 119.523 29.5189C118.891 29.5189 118.316 29.2899 117.856 28.8317C117.338 28.3736 117.108 27.6865 117.108 26.7703C117.108 25.7395 117.396 24.8233 117.971 24.0789C118.546 23.3344 119.293 22.7618 120.213 22.361C121.133 21.9601 122.052 21.7883 123.03 21.7883C124.87 21.7883 126.479 22.2464 127.859 23.2199C129.181 24.1934 129.871 25.6822 129.871 27.7437V38.0512C129.871 39.4255 130.331 40.1699 131.193 40.1699C131.883 40.1699 132.401 39.7691 132.688 38.9674C132.976 38.1657 133.148 37.135 133.148 35.9897H133.896C133.896 37.6503 133.666 39.0819 133.148 40.2272C132.631 41.3725 131.768 41.9451 130.504 41.9451C129.296 41.9451 128.376 41.6015 127.802 40.8571C127.169 40.1699 126.882 39.1392 126.824 37.8794L126.594 37.8221C126.192 38.7956 125.502 39.7118 124.525 40.628C123.605 41.487 122.455 41.9451 121.19 41.9451C119.753 41.8878 118.488 41.5442 117.396 40.7998ZM124.87 38.9101C125.559 37.9366 126.249 36.6768 126.767 35.1307V31.1223L123.087 31.924C121.765 32.2103 120.788 32.7829 120.155 33.5846C119.523 34.3863 119.235 35.5888 119.235 37.0777C119.235 38.3375 119.523 39.2537 120.04 39.7118C120.558 40.1699 121.19 40.399 121.88 40.399C123.202 40.399 124.18 39.8836 124.87 38.9101Z" fill="#2C3C54"/>
<path d="M136.483 33.5846H137.23L138.782 36.9059C140.277 39.54 142.289 40.9143 144.704 40.9143C145.969 40.9143 146.946 40.628 147.578 39.9981C148.211 39.3682 148.498 38.5093 148.498 37.4213C148.498 36.7914 148.268 36.2187 147.751 35.7034C147.233 35.188 146.601 34.7871 145.796 34.4436L140.967 32.4966C139.472 31.8667 138.265 31.1223 137.402 30.2633C136.54 29.4044 136.08 28.3164 136.08 26.942C136.08 25.2241 136.598 23.9643 137.69 23.1054C138.782 22.2464 140.104 21.7883 141.714 21.7883C142.519 21.7883 143.266 21.9029 144.014 22.1892C144.704 22.4755 145.336 22.7618 145.796 23.1054C146.428 23.5635 146.888 23.7926 147.176 23.7926C147.521 23.7926 147.751 23.5635 147.866 23.0481L147.923 22.1892H148.671V28.5454H147.923L147.348 27.0566C146.716 25.4532 145.854 24.3652 144.819 23.678C143.784 23.0481 142.692 22.7045 141.657 22.7045C140.622 22.7045 139.76 22.9909 139.07 23.5062C138.38 24.0216 138.035 24.766 138.035 25.6822C138.035 26.4839 138.38 27.1711 139.012 27.6865C139.645 28.2018 140.564 28.7172 141.714 29.1753L146.256 31.065C147.578 31.6377 148.613 32.3248 149.303 33.1265C149.993 33.9282 150.338 35.0162 150.338 36.4478C150.338 38.3375 149.82 39.7118 148.728 40.5708C147.636 41.4297 146.256 41.8878 144.531 41.8878C143.496 41.8878 142.634 41.7733 142.002 41.487C141.369 41.2007 140.737 40.8571 140.104 40.3417C139.875 40.1699 139.587 39.9981 139.357 39.8263C139.127 39.7118 138.897 39.5973 138.667 39.5973C137.977 39.5973 137.517 40.0554 137.287 41.0289L137.115 41.8878H136.368V33.5846H136.483Z" fill="#2C3C54"/>
<path d="M156.317 40.5707C155.512 39.6545 155.052 38.452 155.052 36.9059V23.4489H151.948V22.2464H152.867C154.132 22.2464 155.11 21.5592 155.857 20.1849C156.547 18.8106 156.949 17.3217 156.949 15.6611V14.1722H158.157V22.2464H163.388V23.4489H158.099V37.1349C158.099 37.9939 158.271 38.681 158.616 39.2537C158.961 39.8263 159.536 40.1126 160.341 40.1126C162.353 40.1126 163.331 38.452 163.331 35.0734H164.078C164.078 36.9631 163.791 38.5665 163.273 39.9408C162.698 41.3152 161.433 42.0023 159.479 42.0023C158.214 41.8878 157.122 41.4297 156.317 40.5707Z" fill="#2C3C54"/>
<path d="M173.736 39.8836H176.783C177.531 39.8836 177.933 39.4827 177.933 38.7383V13.7714C177.933 13.3706 177.818 13.0843 177.646 12.9125C177.473 12.7407 177.186 12.6261 176.783 12.6261H173.736V11.3091H187.477C189.144 11.3091 190.696 11.5954 192.133 12.2253C193.571 12.8552 194.721 13.7142 195.583 14.7449C196.445 15.8329 196.905 17.0354 196.905 18.4098C196.905 20.2995 196.273 21.9028 194.95 23.1054C193.686 24.3652 192.133 25.1096 190.466 25.5104V25.6822C191.616 25.7395 192.766 26.1403 193.916 26.7702C195.065 27.4001 195.985 28.2591 196.733 29.3471C197.48 30.4351 197.825 31.6949 197.825 33.012C197.825 34.7299 197.365 36.1615 196.503 37.4212C195.583 38.681 194.376 39.5973 192.881 40.2272C191.386 40.8571 189.719 41.1434 187.937 41.1434H173.736V39.8836V39.8836ZM187.304 24.9378C189.604 24.9378 191.156 24.3652 191.961 23.2199C192.766 22.0746 193.226 20.4712 193.226 18.5243C193.226 16.8636 192.708 15.4893 191.616 14.344C190.524 13.256 189.201 12.6834 187.649 12.6834H182.935C182.533 12.6834 182.245 12.7979 182.073 12.9697C181.9 13.1415 181.785 13.4278 181.785 13.8287V24.9378H187.304ZM187.477 39.8836C189.201 39.8836 190.581 39.3682 191.731 38.3375C192.823 37.3067 193.398 35.5888 193.398 33.0692C193.398 30.6069 192.823 28.8317 191.731 27.801C190.639 26.7702 189.201 26.2549 187.477 26.2549H181.785V38.7383C181.785 39.4827 182.188 39.8836 182.935 39.8836H187.477V39.8836Z" fill="white"/>
<path d="M204.264 40.3418C202.999 39.4255 201.964 38.223 201.217 36.6769C200.47 35.1308 200.125 33.4701 200.125 31.6377C200.125 29.8053 200.47 28.1446 201.217 26.5985C201.964 25.0524 202.999 23.8499 204.264 22.9337C205.529 22.0174 206.966 21.5593 208.518 21.5593C210.071 21.5593 211.508 22.0174 212.773 22.9337C214.037 23.8499 215.072 25.0524 215.82 26.5985C216.567 28.1446 216.912 29.8053 216.912 31.6377C216.912 33.4701 216.567 35.1308 215.82 36.6769C215.072 38.223 214.037 39.4255 212.773 40.3418C211.508 41.258 210.071 41.7161 208.518 41.7161C206.966 41.7161 205.529 41.258 204.264 40.3418ZM212.14 38.3375C212.888 36.7342 213.232 34.5009 213.232 31.6377C213.232 28.7745 212.888 26.5413 212.14 24.9379C211.393 23.3345 210.185 22.5901 208.518 22.5901C206.851 22.5901 205.644 23.3918 204.896 24.9379C204.149 26.5413 203.804 28.7745 203.804 31.6377C203.804 34.5009 204.149 36.7342 204.896 38.3375C205.644 39.9409 206.851 40.6853 208.518 40.6853C210.185 40.6853 211.393 39.8837 212.14 38.3375Z" fill="#2C3C54"/>
<path d="M223.753 40.3418C222.488 39.4255 221.454 38.223 220.706 36.6769C219.959 35.1308 219.614 33.4701 219.614 31.6377C219.614 29.8053 219.959 28.1446 220.706 26.5985C221.454 25.0524 222.488 23.8499 223.753 22.9337C225.018 22.0174 226.455 21.5593 228.008 21.5593C229.56 21.5593 230.997 22.0174 232.262 22.9337C233.527 23.8499 234.561 25.0524 235.309 26.5985C236.056 28.1446 236.401 29.8053 236.401 31.6377C236.401 33.4701 236.056 35.1308 235.309 36.6769C234.561 38.223 233.527 39.4255 232.262 40.3418C230.997 41.258 229.56 41.7161 228.008 41.7161C226.455 41.7161 225.076 41.258 223.753 40.3418ZM231.629 38.3375C232.377 36.7342 232.722 34.5009 232.722 31.6377C232.722 28.7745 232.377 26.5413 231.629 24.9379C230.882 23.3345 229.675 22.5901 228.008 22.5901C226.34 22.5901 225.133 23.3918 224.386 24.9379C223.638 26.5413 223.293 28.7745 223.293 31.6377C223.293 34.5009 223.638 36.7342 224.386 38.3375C225.133 39.9409 226.34 40.6853 228.008 40.6853C229.732 40.6853 230.94 39.8837 231.629 38.3375Z" fill="#2C3C54"/>
<path d="M238.241 40.1699H240.426C240.771 40.1699 241 40.1126 241.115 39.9408C241.23 39.8263 241.345 39.54 241.345 39.2537V13.256C241.345 12.9125 241.288 12.6834 241.115 12.5689C241 12.4544 240.713 12.3398 240.426 12.3398H238.241V11.3091H244.392V32.6684L250.141 25.6822C250.429 25.3386 250.659 25.1096 250.774 24.8805C250.889 24.7087 250.946 24.4224 250.946 24.1361C250.946 23.7925 250.831 23.5062 250.544 23.3344C250.256 23.1626 249.911 23.0481 249.509 23.0481H248.359V22.0174H256.983V23.0481H255.661C254.913 23.0481 254.223 23.2199 253.648 23.6207C253.073 24.0216 252.384 24.6515 251.636 25.5677L248.417 29.4616L254.971 38.7956C255.316 39.2537 255.603 39.5973 255.833 39.8263C256.063 40.0554 256.408 40.1126 256.868 40.1126H257.73V41.1434H248.819V40.1126H249.911C250.256 40.1126 250.544 40.0554 250.774 39.9408C250.946 39.8263 251.061 39.5973 251.061 39.3109C251.061 39.0246 251.004 38.7383 250.946 38.5665C250.889 38.3947 250.716 38.1084 250.544 37.8221L246.405 31.924L244.45 34.2718V39.1964C244.45 39.54 244.507 39.7691 244.68 39.8836C244.795 39.9981 245.082 40.1126 245.37 40.1126H246.692V41.1434H238.241V40.1699Z" fill="#2C3C54"/>
<path d="M260.145 33.4128H260.892L262.444 36.7341C263.939 39.3682 265.951 40.7425 268.366 40.7425C269.631 40.7425 270.608 40.4562 271.24 39.8263C271.873 39.1964 272.16 38.3375 272.16 37.2495C272.16 36.6196 271.93 36.0469 271.413 35.5316C270.895 35.0162 270.263 34.6153 269.458 34.2718L264.629 32.3248C263.134 31.6949 261.927 30.9505 261.065 30.0915C260.202 29.2326 259.742 28.1446 259.742 26.7702C259.742 25.0523 260.26 23.7925 261.352 22.9336C262.444 22.0746 263.767 21.6165 265.376 21.6165C266.181 21.6165 266.929 21.731 267.676 22.0174C268.366 22.3037 268.998 22.59 269.458 22.9336C270.091 23.3917 270.551 23.6207 270.838 23.6207C271.183 23.6207 271.413 23.3917 271.528 22.8763L271.585 22.0174H272.333V28.3736H271.585L271.01 26.8848C270.378 25.2814 269.516 24.1934 268.481 23.5062C267.446 22.8763 266.354 22.5327 265.319 22.5327C264.284 22.5327 263.422 22.819 262.732 23.3344C262.042 23.8498 261.697 24.5942 261.697 25.5104C261.697 26.3121 262.042 26.9993 262.674 27.5147C263.307 28.03 264.227 28.5454 265.376 29.0035L269.918 30.8932C271.24 31.4658 272.275 32.153 272.965 32.9547C273.655 33.7564 274 34.8444 274 36.276C274 38.1657 273.483 39.54 272.39 40.3989C271.298 41.2579 269.918 41.716 268.193 41.716C267.159 41.716 266.296 41.6015 265.664 41.3152C265.031 41.0288 264.399 40.6853 263.767 40.1699C263.537 39.9981 263.249 39.8263 263.019 39.6545C262.789 39.54 262.559 39.4255 262.329 39.4255C261.639 39.4255 261.18 39.8836 260.95 40.8571L260.777 41.716H260.03V33.4128H260.145Z" fill="#2C3C54"/>
</svg>
