<svg width="477" height="81" viewBox="0 0 477 81" fill="none" xmlns="http://www.w3.org/2000/svg">
<g clip-path="url(#clip0_2_47)">
<path d="M129.9 15.4H81.1V77.2H129.9V15.4Z" fill="#2C3C54"/>
<path d="M346.4 15.2999H297.6V77.2999H346.4V15.2999Z" fill="#2C3C54"/>
<path fill-rule="evenodd" clip-rule="evenodd" d="M13.6 31.9999C13.6 31.9999 2.09999 39.4999 1.89999 52.2999C1.79999 59.3999 6.19999 64.0999 7.69999 65.2999C7.69999 65.2999 2.29999 55.9999 6.39999 48.6999C10.5 41.3999 16.4 39.0999 16.4 39.0999L13.6 31.9999Z" fill="#5575A3"/>
<path fill-rule="evenodd" clip-rule="evenodd" d="M22.8 17.7L26.7 5.89996C26.7 5.89996 37.1 11.1 44.4 27.8C51.7 44.5 42.2 57.4 37.6 61.3C37.6 61.3 42.1 50.1 42.1 43.1C42.1 36.4 36.2 25.3 22.8 17.7Z" fill="#5575A3"/>
<path d="M18.5 63.5L19.7 0.199951L21.6 62.9L18.5 63.5Z" fill="#5575A3"/>
<path fill-rule="evenodd" clip-rule="evenodd" d="M0 67.8C0 67.8 21 58.2 65 62C65 62 63.4 81.4 41.8 80.5C41.8 80.5 58.5 76.1 57.2 62.5C57.1 62.5 26.3 62.1 0 67.8Z" fill="#5575A3"/>
<path d="M85.7 69.7999H91C92.3 69.7999 93 69.0999 93 67.7999V24.2999C93 23.5999 92.8 23.0999 92.5 22.7999C92.2 22.4999 91.7 22.2999 91 22.2999H85.7V19.9999H109.6C112.5 19.9999 115.2 20.4999 117.7 21.5999C120.2 22.6999 122.2 24.1999 123.7 25.9999C125.2 27.8999 126 29.9999 126 32.3999C126 35.6999 124.9 38.4999 122.6 40.5999C120.4 42.7999 117.7 44.0999 114.8 44.7999V45.0999C116.8 45.1999 118.8 45.8999 120.8 46.9999C122.8 48.0999 124.4 49.5999 125.7 51.4999C127 53.3999 127.6 55.5999 127.6 57.8999C127.6 60.8999 126.8 63.3999 125.3 65.5999C123.7 67.7999 121.6 69.3999 119 70.4999C116.4 71.5999 113.5 72.0999 110.4 72.0999H85.7V69.7999ZM109.3 43.6999C113.3 43.6999 116 42.6999 117.4 40.6999C118.8 38.6999 119.6 35.8999 119.6 32.4999C119.6 29.5999 118.7 27.1999 116.8 25.1999C114.9 23.2999 112.6 22.2999 109.9 22.2999H101.7C101 22.2999 100.5 22.4999 100.2 22.7999C99.9 23.0999 99.7 23.5999 99.7 24.2999V43.6999H109.3ZM109.6 69.7999C112.6 69.7999 115 68.8999 117 67.0999C118.9 65.2999 119.9 62.2999 119.9 57.8999C119.9 53.5999 118.9 50.4999 117 48.6999C115.1 46.8999 112.6 45.9999 109.6 45.9999H99.7V67.7999C99.7 69.0999 100.4 69.7999 101.7 69.7999H109.6Z" fill="white"/>
<path d="M134.4 71.1C132.5 69.8 131.6 67.6 131.6 64.4C131.6 61.9 132.2 60 133.5 58.5C134.8 57.1 136.2 56.1 137.9 55.5C139.6 54.9 141.6 54.4 144 53.9L150.7 52.7V46.5C150.7 42 148.4 39.7 143.9 39.7C142.2 39.7 140.7 40.1 139.4 41C138 41.9 137.3 42.8 137.3 43.9C137.3 44.4 137.4 44.8 137.5 45C137.6 45.1 137.8 45.3 138 45.4C138.2 45.5 138.4 45.6 138.6 45.7C139.5 45.9 140.2 46.3 140.6 46.7C141.1 47.1 141.3 47.8 141.3 48.5C141.3 49.5 141 50.3 140.4 50.7C139.8 51.1 139 51.4 138.1 51.4C137 51.4 136 51 135.2 50.2C134.3 49.4 133.9 48.2 133.9 46.6C133.9 44.8 134.4 43.2 135.4 41.9C136.4 40.6 137.7 39.6 139.3 38.9C140.9 38.2 142.5 37.9 144.2 37.9C147.4 37.9 150.2 38.7 152.6 40.4C154.9 42.1 156.1 44.7 156.1 48.3V66.3C156.1 68.7 156.9 70 158.4 70C159.6 70 160.5 69.3 161 67.9C161.5 66.5 161.8 64.7 161.8 62.7H163.1C163.1 65.6 162.7 68.1 161.8 70.1C160.9 72.1 159.4 73.1 157.2 73.1C155.1 73.1 153.5 72.5 152.5 71.2C151.4 70 150.9 68.2 150.8 66L150.4 65.9C149.7 67.6 148.5 69.2 146.8 70.8C145.2 72.3 143.2 73.1 141 73.1C138.5 73 136.3 72.4 134.4 71.1ZM147.5 67.8C148.7 66.1 149.9 63.9 150.8 61.2V54.2L144.4 55.6C142.1 56.1 140.4 57.1 139.3 58.5C138.2 59.9 137.7 62 137.7 64.6C137.7 66.8 138.2 68.4 139.1 69.2C140 70 141.1 70.4 142.3 70.4C144.5 70.4 146.2 69.5 147.5 67.8Z" fill="#2C3C54"/>
<path d="M164.3 70.4H168.1C168.7 70.4 169.1 70.3 169.3 70C169.5 69.8 169.7 69.3 169.7 68.8V23.3C169.7 22.7 169.6 22.3 169.3 22.1C169.1 21.9 168.6 21.7 168.1 21.7H164.3V19.9H175V68.7C175 69.3 175.1 69.7 175.4 69.9C175.6 70.1 176.1 70.3 176.6 70.3H180.4V72.1H164.3V70.4Z" fill="#2C3C54"/>
<path d="M182.6 70.4H186.4C187 70.4 187.4 70.3 187.6 70C187.8 69.8 188 69.3 188 68.8V23.3C188 22.7 187.9 22.3 187.6 22.1C187.4 21.9 186.9 21.7 186.4 21.7H182.6V19.9H193.3V68.7C193.3 69.3 193.4 69.7 193.7 69.9C193.9 70.1 194.4 70.3 194.9 70.3H198.7V72.1H182.6V70.4Z" fill="#2C3C54"/>
<path d="M204.2 71.1C202.3 69.8 201.4 67.6 201.4 64.4C201.4 61.9 202 60 203.3 58.5C204.6 57.1 206 56.1 207.7 55.5C209.4 54.9 211.4 54.4 213.8 53.9L220.5 52.7V46.5C220.5 42 218.2 39.7 213.7 39.7C212 39.7 210.5 40.1 209.2 41C207.8 41.9 207.1 42.8 207.1 43.9C207.1 44.4 207.2 44.8 207.3 45C207.4 45.1 207.6 45.3 207.8 45.4C208 45.5 208.2 45.6 208.4 45.7C209.3 45.9 210 46.3 210.4 46.7C210.9 47.1 211.1 47.8 211.1 48.5C211.1 49.5 210.8 50.3 210.2 50.7C209.6 51.1 208.8 51.4 207.9 51.4C206.8 51.4 205.8 51 205 50.2C204.1 49.4 203.7 48.2 203.7 46.6C203.7 44.8 204.2 43.2 205.2 41.9C206.2 40.6 207.5 39.6 209.1 38.9C210.7 38.2 212.3 37.9 214 37.9C217.2 37.9 220 38.7 222.4 40.4C224.7 42.1 225.9 44.7 225.9 48.3V66.3C225.9 68.7 226.7 70 228.2 70C229.4 70 230.3 69.3 230.8 67.9C231.3 66.5 231.6 64.7 231.6 62.7H232.9C232.9 65.6 232.5 68.1 231.6 70.1C230.7 72.1 229.2 73.1 227 73.1C224.9 73.1 223.3 72.5 222.3 71.2C221.2 70 220.7 68.2 220.6 66L220.2 65.9C219.5 67.6 218.3 69.2 216.6 70.8C215 72.3 213 73.1 210.8 73.1C208.3 73 206.1 72.4 204.2 71.1ZM217.2 67.8C218.4 66.1 219.6 63.9 220.5 61.2V54.2L214.1 55.6C211.8 56.1 210.1 57.1 209 58.5C207.9 59.9 207.4 62 207.4 64.6C207.4 66.8 207.9 68.4 208.8 69.2C209.7 70 210.8 70.4 212 70.4C214.3 70.4 216 69.5 217.2 67.8Z" fill="#2C3C54"/>
<path d="M237.4 58.5H238.7L241.4 64.3C244 68.9 247.5 71.3 251.7 71.3C253.9 71.3 255.6 70.8 256.7 69.7C257.8 68.6 258.3 67.1 258.3 65.2C258.3 64.1 257.9 63.1 257 62.2C256.1 61.3 255 60.6 253.6 60L245.2 56.6C242.6 55.5 240.5 54.2 239 52.7C237.5 51.2 236.7 49.3 236.7 46.9C236.7 43.9 237.6 41.7 239.5 40.2C241.4 38.7 243.7 37.9 246.5 37.9C247.9 37.9 249.2 38.1 250.5 38.6C251.7 39.1 252.8 39.6 253.6 40.2C254.7 41 255.5 41.4 256 41.4C256.6 41.4 257 41 257.2 40.1L257.3 38.6H258.6V49.7H257.3L256.3 47.1C255.2 44.3 253.7 42.4 251.9 41.2C250.1 40.1 248.2 39.5 246.4 39.5C244.6 39.5 243.1 40 241.9 40.9C240.7 41.8 240.1 43.1 240.1 44.7C240.1 46.1 240.7 47.3 241.8 48.2C242.9 49.1 244.5 50 246.5 50.8L254.4 54.1C256.7 55.1 258.5 56.3 259.7 57.7C260.9 59.1 261.5 61 261.5 63.5C261.5 66.8 260.6 69.2 258.7 70.7C256.8 72.2 254.4 73 251.4 73C249.6 73 248.1 72.8 247 72.3C245.9 71.8 244.8 71.2 243.7 70.3C243.3 70 242.8 69.7 242.4 69.4C242 69.2 241.6 69 241.2 69C240 69 239.2 69.8 238.8 71.5L238.5 73H237.2V58.5H237.4Z" fill="#2C3C54"/>
<path d="M271.9 70.7C270.5 69.1 269.7 67 269.7 64.3V40.8H264.3V38.7H265.9C268.1 38.7 269.8 37.5 271.1 35.1C272.3 32.7 273 30.1 273 27.2V24.6H275.1V38.7H284.2V40.8H275V64.7C275 66.2 275.3 67.4 275.9 68.4C276.5 69.4 277.5 69.9 278.9 69.9C282.4 69.9 284.1 67 284.1 61.1H285.4C285.4 64.4 284.9 67.2 284 69.6C283 72 280.8 73.2 277.4 73.2C275.2 73 273.3 72.2 271.9 70.7Z" fill="#2C3C54"/>
<path d="M302.2 69.5H307.5C308.8 69.5 309.5 68.8 309.5 67.5V23.9C309.5 23.2 309.3 22.7 309 22.4C308.7 22.1 308.2 21.9 307.5 21.9H302.2V19.6H326.1C329 19.6 331.7 20.1 334.2 21.2C336.7 22.3 338.7 23.8 340.2 25.6C341.7 27.5 342.5 29.6 342.5 32C342.5 35.3 341.4 38.1 339.1 40.2C336.9 42.4 334.2 43.7 331.3 44.4V44.7C333.3 44.8 335.3 45.5 337.3 46.6C339.3 47.7 340.9 49.2 342.2 51.1C343.5 53 344.1 55.2 344.1 57.5C344.1 60.5 343.3 63 341.8 65.2C340.2 67.4 338.1 69 335.5 70.1C332.9 71.2 330 71.7 326.9 71.7H302.2V69.5ZM325.8 43.4C329.8 43.4 332.5 42.4 333.9 40.4C335.3 38.4 336.1 35.6 336.1 32.2C336.1 29.3 335.2 26.9 333.3 24.9C331.4 23 329.1 22 326.4 22H318.2C317.5 22 317 22.2 316.7 22.5C316.4 22.8 316.2 23.3 316.2 24V43.4H325.8ZM326.1 69.5C329.1 69.5 331.5 68.6 333.5 66.8C335.4 65 336.4 62 336.4 57.6C336.4 53.3 335.4 50.2 333.5 48.4C331.6 46.6 329.1 45.7 326.1 45.7H316.2V67.5C316.2 68.8 316.9 69.5 318.2 69.5H326.1Z" fill="white"/>
<path d="M355.3 70.3C353.1 68.7 351.3 66.6 350 63.9C348.7 61.2 348.1 58.3 348.1 55.1C348.1 51.9 348.7 49 350 46.3C351.3 43.6 353.1 41.5 355.3 39.9C357.5 38.3 360 37.5 362.7 37.5C365.4 37.5 367.9 38.3 370.1 39.9C372.3 41.5 374.1 43.6 375.4 46.3C376.7 49 377.3 51.9 377.3 55.1C377.3 58.3 376.7 61.2 375.4 63.9C374.1 66.6 372.3 68.7 370.1 70.3C367.9 71.9 365.4 72.7 362.7 72.7C360 72.7 357.5 71.9 355.3 70.3ZM369 66.8C370.3 64 370.9 60.1 370.9 55.1C370.9 50.1 370.3 46.2 369 43.4C367.7 40.6 365.6 39.3 362.7 39.3C359.8 39.3 357.7 40.7 356.4 43.4C355.1 46.2 354.5 50.1 354.5 55.1C354.5 60.1 355.1 64 356.4 66.8C357.7 69.6 359.8 70.9 362.7 70.9C365.6 70.9 367.7 69.5 369 66.8Z" fill="#2C3C54"/>
<path d="M389.2 70.3C387 68.7 385.2 66.6 383.9 63.9C382.6 61.2 382 58.3 382 55.1C382 51.9 382.6 49 383.9 46.3C385.2 43.6 387 41.5 389.2 39.9C391.4 38.3 393.9 37.5 396.6 37.5C399.3 37.5 401.8 38.3 404 39.9C406.2 41.5 408 43.6 409.3 46.3C410.6 49 411.2 51.9 411.2 55.1C411.2 58.3 410.6 61.2 409.3 63.9C408 66.6 406.2 68.7 404 70.3C401.8 71.9 399.3 72.7 396.6 72.7C393.9 72.7 391.5 71.9 389.2 70.3ZM402.9 66.8C404.2 64 404.8 60.1 404.8 55.1C404.8 50.1 404.2 46.2 402.9 43.4C401.6 40.6 399.5 39.3 396.6 39.3C393.7 39.3 391.6 40.7 390.3 43.4C389 46.2 388.4 50.1 388.4 55.1C388.4 60.1 389 64 390.3 66.8C391.6 69.6 393.7 70.9 396.6 70.9C399.6 70.9 401.7 69.5 402.9 66.8Z" fill="#2C3C54"/>
<path d="M414.4 70H418.2C418.8 70 419.2 69.9 419.4 69.6C419.6 69.4 419.8 68.9 419.8 68.4V23C419.8 22.4 419.7 22 419.4 21.8C419.2 21.6 418.7 21.4 418.2 21.4H414.4V19.6H425.1V56.9L435.1 44.7C435.6 44.1 436 43.7 436.2 43.3C436.4 43 436.5 42.5 436.5 42C436.5 41.4 436.3 40.9 435.8 40.6C435.3 40.3 434.7 40.1 434 40.1H432V38.3H447V40.1H444.7C443.4 40.1 442.2 40.4 441.2 41.1C440.2 41.8 439 42.9 437.7 44.5L432.1 51.3L443.5 67.6C444.1 68.4 444.6 69 445 69.4C445.4 69.8 446 69.9 446.8 69.9H448.3V71.7H432.8V69.9H434.7C435.3 69.9 435.8 69.8 436.2 69.6C436.5 69.4 436.7 69 436.7 68.5C436.7 68 436.6 67.5 436.5 67.2C436.4 66.9 436.1 66.4 435.8 65.9L428.6 55.6L425.2 59.7V68.3C425.2 68.9 425.3 69.3 425.6 69.5C425.8 69.7 426.3 69.9 426.8 69.9H429.1V71.7H414.4V70Z" fill="#2C3C54"/>
<path d="M452.5 58.2H453.8L456.5 64C459.1 68.6 462.6 71 466.8 71C469 71 470.7 70.5 471.8 69.4C472.9 68.3 473.4 66.8 473.4 64.9C473.4 63.8 473 62.8 472.1 61.9C471.2 61 470.1 60.3 468.7 59.7L460.3 56.3C457.7 55.2 455.6 53.9 454.1 52.4C452.6 50.9 451.8 49 451.8 46.6C451.8 43.6 452.7 41.4 454.6 39.9C456.5 38.4 458.8 37.6 461.6 37.6C463 37.6 464.3 37.8 465.6 38.3C466.8 38.8 467.9 39.3 468.7 39.9C469.8 40.7 470.6 41.1 471.1 41.1C471.7 41.1 472.1 40.7 472.3 39.8L472.4 38.3H473.7V49.4H472.4L471.4 46.8C470.3 44 468.8 42.1 467 40.9C465.2 39.8 463.3 39.2 461.5 39.2C459.7 39.2 458.2 39.7 457 40.6C455.8 41.5 455.2 42.8 455.2 44.4C455.2 45.8 455.8 47 456.9 47.9C458 48.8 459.6 49.7 461.6 50.5L469.5 53.8C471.8 54.8 473.6 56 474.8 57.4C476 58.8 476.6 60.7 476.6 63.2C476.6 66.5 475.7 68.9 473.8 70.4C471.9 71.9 469.5 72.7 466.5 72.7C464.7 72.7 463.2 72.5 462.1 72C461 71.5 459.9 70.9 458.8 70C458.4 69.7 457.9 69.4 457.5 69.1C457.1 68.9 456.7 68.7 456.3 68.7C455.1 68.7 454.3 69.5 453.9 71.2L453.6 72.7H452.3V58.2H452.5Z" fill="#2C3C54"/>
</g>
<defs>
<clipPath id="clip0_2_47">
<rect width="476.8" height="80.3" fill="white" transform="translate(0 0.199951)"/>
</clipPath>
</defs>
</svg>
