<svg width="297" height="305" viewBox="0 0 297 305" fill="none" xmlns="http://www.w3.org/2000/svg">
<g clip-path="url(#clip0_2_69)">
<path fill-rule="evenodd" clip-rule="evenodd" d="M25.1 58.6C25.1 58.6 3.99995 72.4 3.59995 95.9C3.39995 109 11.5 117.7 14.3 119.8C14.3 119.8 4.29995 102.6 11.9 89.2C19.5 75.8 30.2 71.5 30.2 71.5L25.1 58.6Z" fill="#88ADD8"/>
<path fill-rule="evenodd" clip-rule="evenodd" d="M42 32.3L49.2 10.7C49.2 10.7 68.4 20.2 81.7 51C95 81.8 77.6 105.5 69.2 112.6C69.2 112.6 77.4 92 77.4 79C77.5 66.7 66.7 46.2999 42 32.3Z" fill="#88ADD8"/>
<path d="M34 116.6L36.3 0.0999756L39.8 115.6L34 116.6Z" fill="#88ADD8"/>
<path fill-rule="evenodd" clip-rule="evenodd" d="M0 124.5C0 124.5 38.7 106.8 119.7 113.9C119.7 113.9 116.7 149.6 77 147.9C77 147.9 107.7 139.8 105.3 114.8C105.2 114.7 48.3 114.1 0 124.5Z" fill="#88ADD8"/>
<path d="M52.6 161.2C54.7 158.3 55.7 154.3 55.7 149.2C55.7 144.9 54.4 141.4 51.7 138.7C49 135.9 45.7 134.5 41.7 134.5H29.8C28.8 134.5 28.1 134.7 27.6 135.2C27.1 135.7 26.9 136.4 26.9 137.4V165.6H40.8C46.6 165.6 50.6 164.1 52.6 161.2Z" fill="white"/>
<path d="M41.3 169H26.9V200.6C26.9 202.5 27.9 203.5 29.8 203.5H41.3C45.6 203.5 49.2 202.2 52 199.6C54.8 197 56.2 192.6 56.2 186.2C56.2 179.9 54.8 175.4 52 172.8C49.2 170.3 45.6 169 41.3 169Z" fill="white"/>
<path d="M0 124.5V214.3H70.9V124.5H0ZM64.1 197.4C61.8 200.5 58.8 202.9 55 204.5C51.2 206.1 47 206.9 42.5 206.9H6.6V203.5H14.3C16.2 203.5 17.2 202.5 17.2 200.6V137.4C17.2 136.4 17 135.7 16.5 135.2C16 134.7 15.3 134.5 14.3 134.5H6.6V131.1H41.3C45.5 131.1 49.4 131.9 53.1 133.4C56.8 135 59.7 137.1 61.9 139.8C64.1 142.5 65.2 145.6 65.2 149.1C65.2 153.9 63.6 157.9 60.3 161C57 164.1 53.2 166.1 48.9 167.1V167.5C51.8 167.7 54.7 168.6 57.6 170.2C60.5 171.8 62.9 174 64.7 176.7C66.6 179.5 67.5 182.6 67.5 186.1C67.5 190.6 66.4 194.3 64.1 197.4Z" fill="white"/>
<path d="M77.5 205.4C74.8 203.6 73.4 200.3 73.4 195.6C73.4 192 74.3 189.1 76.2 187.1C78 185 80.2 183.6 82.6 182.7C85 181.8 88 181.1 91.5 180.4L101.3 178.6V169.6C101.3 163 98 159.7 91.4 159.7C89 159.7 86.8 160.3 84.8 161.6C82.8 162.8 81.8 164.2 81.8 165.8C81.8 166.5 81.9 167 82.1 167.4C82.2 167.6 82.5 167.8 82.8 168C83.1 168.2 83.4 168.4 83.7 168.4C85 168.8 86 169.3 86.6 169.9C87.3 170.5 87.6 171.4 87.6 172.6C87.6 174.1 87.2 175.2 86.3 175.8C85.4 176.4 84.3 176.8 82.9 176.8C81.3 176.8 79.9 176.2 78.6 175C77.3 173.8 76.7 172.1 76.7 169.8C76.7 167.2 77.4 164.9 78.9 163C80.4 161.1 82.2 159.6 84.5 158.7C86.8 157.7 89.2 157.3 91.6 157.3C96.3 157.3 100.3 158.5 103.7 161C107.1 163.4 108.8 167.3 108.8 172.4V198.6C108.8 202.1 109.9 203.9 112.1 203.9C113.9 203.9 115.2 202.9 115.9 200.8C116.7 198.7 117.1 196.2 117.1 193.2H119C119 197.5 118.4 201 117.1 204C115.9 206.9 113.6 208.4 110.4 208.4C107.3 208.4 105.1 207.5 103.5 205.7C102 203.9 101.1 201.4 101 198.2L100.5 198C99.4 200.5 97.7 202.8 95.3 205.1C92.9 207.3 90.1 208.5 86.9 208.5C83.4 208.2 80.2 207.3 77.5 205.4ZM96.4 200.6C98.2 198.1 99.8 194.9 101.2 191V180.9L91.9 182.9C88.5 183.6 86 185 84.5 187.1C83 189.2 82.2 192.2 82.2 196C82.2 199.3 82.9 201.5 84.2 202.7C85.5 203.9 87.1 204.5 88.8 204.5C92.1 204.4 94.6 203.1 96.4 200.6Z" fill="white"/>
<path d="M120.8 204.4H126.3C127.2 204.4 127.8 204.2 128.1 203.9C128.5 203.5 128.6 202.9 128.6 202.1V136.1C128.6 135.2 128.4 134.6 128.1 134.3C127.7 133.9 127.1 133.8 126.3 133.8H120.8V131.1H136.3V202C136.3 202.9 136.5 203.5 136.8 203.8C137.2 204.2 137.8 204.3 138.6 204.3H144.1V206.9H120.7V204.4H120.8Z" fill="white"/>
<path d="M147.5 204.4H153C153.9 204.4 154.5 204.2 154.8 203.9C155.2 203.5 155.3 202.9 155.3 202.1V136.1C155.3 135.2 155.1 134.6 154.8 134.3C154.4 133.9 153.8 133.8 153 133.8H147.5V131.1H163V202C163 202.9 163.2 203.5 163.5 203.8C163.9 204.2 164.5 204.3 165.3 204.3H170.8V206.9H147.4V204.4H147.5Z" fill="white"/>
<path d="M178.8 205.4C176.1 203.6 174.7 200.3 174.7 195.6C174.7 192 175.6 189.1 177.5 187.1C179.3 185 181.5 183.6 183.9 182.7C186.3 181.8 189.3 181.1 192.8 180.4L202.6 178.6V169.6C202.6 163 199.3 159.7 192.7 159.7C190.3 159.7 188.1 160.3 186.1 161.6C184.1 162.8 183.1 164.2 183.1 165.8C183.1 166.5 183.2 167 183.4 167.4C183.5 167.6 183.8 167.8 184.1 168C184.4 168.2 184.7 168.4 185 168.4C186.3 168.8 187.3 169.3 187.9 169.9C188.6 170.5 188.9 171.4 188.9 172.6C188.9 174.1 188.5 175.2 187.6 175.8C186.7 176.4 185.6 176.8 184.2 176.8C182.6 176.8 181.2 176.2 179.9 175C178.6 173.8 178 172.1 178 169.8C178 167.2 178.7 164.9 180.2 163C181.7 161.1 183.5 159.6 185.8 158.7C188.1 157.7 190.5 157.3 192.9 157.3C197.6 157.3 201.6 158.5 205 161C208.4 163.4 210.1 167.3 210.1 172.4V198.6C210.1 202.1 211.2 203.9 213.4 203.9C215.2 203.9 216.5 202.9 217.2 200.8C218 198.7 218.4 196.2 218.4 193.2H220.3C220.3 197.5 219.7 201 218.4 204C217.2 206.9 214.9 208.4 211.7 208.4C208.6 208.4 206.4 207.5 204.8 205.7C203.3 203.9 202.4 201.4 202.3 198.2L201.8 198C200.7 200.5 199 202.8 196.6 205.1C194.2 207.3 191.4 208.5 188.2 208.5C184.8 208.2 181.5 207.3 178.8 205.4ZM197.8 200.6C199.6 198.1 201.2 194.9 202.6 191V180.9L193.3 182.9C189.9 183.6 187.4 185 185.9 187.1C184.4 189.2 183.6 192.2 183.6 196C183.6 199.3 184.3 201.5 185.6 202.7C186.9 203.9 188.5 204.5 190.2 204.5C193.4 204.4 195.9 203.1 197.8 200.6Z" fill="white"/>
<path d="M227 187.1H228.9L232.8 195.5C236.6 202.2 241.6 205.6 247.7 205.6C251 205.6 253.4 204.8 255 203.2C256.6 201.6 257.4 199.4 257.4 196.7C257.4 195.1 256.8 193.6 255.5 192.3C254.3 191 252.6 189.9 250.5 189.2L238.4 184.3C234.6 182.7 231.5 180.9 229.4 178.7C227.2 176.5 226.1 173.7 226.1 170.3C226.1 166 227.4 162.7 230.1 160.5C232.8 158.3 236.2 157.2 240.3 157.2C242.4 157.2 244.3 157.5 246.1 158.2C247.9 158.9 249.4 159.7 250.6 160.6C252.2 161.7 253.3 162.3 254.1 162.3C255 162.3 255.6 161.7 255.8 160.4L256 158.3H257.9V174.5H256L254.5 170.8C252.9 166.8 250.7 163.9 248.1 162.3C245.4 160.7 242.8 159.9 240.2 159.9C237.6 159.9 235.4 160.6 233.7 161.9C232 163.2 231.1 165 231.1 167.4C231.1 169.5 231.9 171.1 233.6 172.5C235.3 173.8 237.6 175.1 240.5 176.3L252 181.1C255.4 182.5 258 184.2 259.7 186.3C261.4 188.3 262.3 191.1 262.3 194.8C262.3 199.6 261 203.1 258.3 205.3C255.6 207.5 252.1 208.7 247.7 208.7C245.1 208.7 242.9 208.3 241.3 207.6C239.7 206.9 238.1 205.9 236.5 204.7C235.9 204.2 235.2 203.8 234.6 203.4C234 203 233.4 202.9 232.9 202.9C231.2 202.9 230 204.1 229.4 206.5L229 208.6H227V187.1Z" fill="white"/>
<path d="M277.2 204.8C275.1 202.5 274.1 199.4 274.1 195.5V161.3H266.2V158.3H268.5C271.7 158.3 274.2 156.6 276 153.1C277.8 149.7 278.7 145.8 278.7 141.7V137.9H281.7V158.3H294.9V161.3H281.7V196.1C281.7 198.2 282.1 200 283 201.4C283.9 202.8 285.3 203.5 287.4 203.5C292.4 203.5 295 199.2 295 190.7H296.9C296.9 195.5 296.2 199.6 294.8 203C293.4 206.4 290.2 208.2 285.2 208.2C281.9 208.2 279.3 207.1 277.2 204.8Z" fill="white"/>
<path d="M79.9 250.6C82 247.7 83 243.7 83 238.6C83 234.3 81.7 230.8 79 228.1C76.3 225.3 73 223.9 69 223.9H57C56 223.9 55.3 224.1 54.8 224.6C54.3 225.1 54.1 225.8 54.1 226.8V255H68C73.8 255 77.8 253.6 79.9 250.6Z" fill="white"/>
<path d="M68.5 258.4H54.2V290.1C54.2 292 55.1999 293 57.0999 293H68.5999C72.8999 293 76.5 291.7 79.3 289.1C82.1 286.5 83.5 282.1 83.5 275.7C83.5 269.4 82.1 264.9 79.3 262.3C76.4 259.7 72.9 258.4 68.5 258.4Z" fill="white"/>
<path d="M27.2 214.2V304.3H98.0999V214.2H27.2ZM91.3 286.9C89 290 85.9999 292.4 82.1999 294C78.3999 295.6 74.1999 296.4 69.6999 296.4H33.7999V293H41.5C43.4 293 44.4 292 44.4 290.1V226.9C44.4 225.9 44.2 225.2 43.7 224.7C43.2 224.2 42.5 224 41.5 224H33.7999V220.6H68.5C72.7 220.6 76.6 221.4 80.3 222.9C84 224.5 86.8999 226.6 89.0999 229.3C91.2999 232 92.3999 235.1 92.3999 238.6C92.3999 243.4 90.7999 247.4 87.5 250.5C84.2 253.6 80.3999 255.6 76.0999 256.6V257C79 257.2 81.9 258.1 84.8 259.7C87.7 261.3 90.0999 263.5 91.8999 266.2C93.7999 269 94.7 272.1 94.7 275.6C94.7 280 93.6 283.7 91.3 286.9Z" fill="white"/>
<path d="M111 294.2C107.7 291.9 105.2 288.8 103.3 284.9C101.4 281 100.5 276.7 100.5 272.1C100.5 267.5 101.4 263.2 103.3 259.3C105.2 255.4 107.8 252.3 111 250C114.3 247.7 117.8 246.5 121.8 246.5C125.7 246.5 129.3 247.7 132.6 250C135.9 252.3 138.4 255.4 140.3 259.3C142.2 263.2 143.1 267.5 143.1 272.1C143.1 276.7 142.2 281 140.3 284.9C138.4 288.8 135.8 291.9 132.6 294.2C129.3 296.5 125.7 297.7 121.8 297.7C117.9 297.6 114.3 296.5 111 294.2ZM130.9 289C132.7 285 133.7 279.3 133.7 272C133.7 264.7 132.8 259 130.9 255C129.1 251 126 249 121.7 249C117.4 249 114.4 251 112.5 255C110.7 259 109.7 264.7 109.7 272C109.7 279.3 110.6 285 112.5 289C114.3 293 117.4 295 121.7 295C126 295.1 129.1 293.1 130.9 289Z" fill="white"/>
<path d="M160.3 294.2C157 291.9 154.5 288.8 152.6 284.9C150.7 281 149.8 276.7 149.8 272.1C149.8 267.5 150.7 263.2 152.6 259.3C154.5 255.4 157.1 252.3 160.3 250C163.6 247.7 167.1 246.5 171.1 246.5C175 246.5 178.6 247.7 181.9 250C185.2 252.3 187.7 255.4 189.6 259.3C191.5 263.2 192.4 267.5 192.4 272.1C192.4 276.7 191.5 281 189.6 284.9C187.7 288.8 185.1 291.9 181.9 294.2C178.6 296.5 175 297.7 171.1 297.7C167.1 297.6 163.6 296.5 160.3 294.2ZM180.2 289C182 285 183 279.3 183 272C183 264.7 182.1 259 180.2 255C178.4 251 175.3 249 171 249C166.7 249 163.7 251 161.8 255C160 259 159 264.7 159 272C159 279.3 159.9 285 161.8 289C163.6 293 166.7 295 171 295C175.3 295 178.4 293.1 180.2 289Z" fill="white"/>
<path d="M196.9 293.8H202.4C203.3 293.8 203.9 293.6 204.2 293.3C204.6 292.9 204.7 292.3 204.7 291.5V225.5C204.7 224.6 204.5 224 204.2 223.7C203.8 223.3 203.2 223.2 202.4 223.2H196.9V220.6H212.4V274.8L226.9 257.1C227.7 256.2 228.2 255.6 228.4 255.1C228.6 254.6 228.8 254 228.8 253.2C228.8 252.3 228.5 251.6 227.8 251.1C227.1 250.6 226.3 250.4 225.2 250.4H222.4V247.8H244.1V250.4H240.7C238.8 250.4 237.1 250.9 235.6 251.9C234.1 252.9 232.4 254.6 230.5 256.9L222.4 266.8L239 290.4C239.9 291.6 240.6 292.5 241.2 293C241.8 293.5 242.7 293.8 243.9 293.8H246V296.4H223.4V293.8H226.2C227.1 293.8 227.8 293.6 228.3 293.3C228.8 293 229 292.4 229 291.7C229 290.9 228.9 290.3 228.7 289.8C228.5 289.3 228.1 288.7 227.6 287.9L217.2 273L212.3 279V291.6C212.3 292.5 212.5 293.1 212.8 293.4C213.2 293.8 213.8 293.9 214.6 293.9H218V296.5H196.7V293.8H196.9Z" fill="white"/>
<path d="M252.2 276.5H254.1L258 284.9C261.8 291.6 266.8 295 272.9 295C276.2 295 278.6 294.2 280.2 292.6C281.8 291 282.6 288.8 282.6 286.1C282.6 284.5 282 283 280.7 281.7C279.5 280.4 277.8 279.3 275.7 278.6L263.6 273.7C259.8 272.1 256.7 270.3 254.6 268.1C252.4 265.9 251.3 263.1 251.3 259.7C251.3 255.4 252.6 252.1 255.3 249.9C258 247.7 261.4 246.6 265.5 246.6C267.6 246.6 269.5 246.9 271.3 247.6C273.1 248.3 274.6 249.1 275.8 250C277.4 251.1 278.5 251.7 279.3 251.7C280.2 251.7 280.8 251.1 281 249.8L281.2 247.7H283.1V263.9H281.2L279.7 260.2C278.1 256.2 275.9 253.3 273.3 251.7C270.6 250.1 268 249.3 265.4 249.3C262.8 249.3 260.6 250 258.9 251.3C257.2 252.6 256.3 254.4 256.3 256.8C256.3 258.9 257.1 260.5 258.8 261.9C260.5 263.2 262.8 264.5 265.7 265.7L277.2 270.5C280.6 271.9 283.2 273.6 284.9 275.7C286.6 277.7 287.5 280.5 287.5 284.2C287.5 289 286.2 292.5 283.5 294.7C280.8 296.9 277.3 298.1 272.9 298.1C270.3 298.1 268.1 297.7 266.5 297C264.9 296.3 263.3 295.3 261.7 294.1C261.1 293.6 260.4 293.2 259.8 292.8C259.2 292.4 258.6 292.3 258.1 292.3C256.4 292.3 255.2 293.5 254.6 295.9L254.2 298H252.3V276.5H252.2Z" fill="white"/>
</g>
<defs>
<clipPath id="clip0_2_69">
<rect width="296.8" height="304.2" fill="white" transform="translate(0 0.0999756)"/>
</clipPath>
</defs>
</svg>
