<svg width="323" height="331" viewBox="0 0 323 331" fill="none" xmlns="http://www.w3.org/2000/svg">
<g clip-path="url(#clip0_2_3)">
<path d="M77.1 135.1H0V232.6H77.1V135.1Z" fill="#2C3C54"/>
<path d="M106.7 232.6H29.6V330.4H106.7V232.6Z" fill="#2C3C54"/>
<path fill-rule="evenodd" clip-rule="evenodd" d="M27.3 63.6C27.3 63.6 4.4 78.6 4 104.1C3.8 118.3 12.5 127.8 15.7 130.1C15.7 130.1 4.8 111.4 13.1 96.8C21.4 82.2 33 77.6 33 77.6L27.3 63.6Z" fill="#5575A3"/>
<path fill-rule="evenodd" clip-rule="evenodd" d="M45.7 35L53.5 11.5C53.5 11.5 74.4 21.8 88.8 55.3C103.2 88.8 84.3 114.5 75.2 122.2C75.2 122.2 84.1 99.9 84.1 85.7C84.1 72.3 72.5 50.2 45.7 35Z" fill="#5575A3"/>
<path d="M36.9 126.6L39.4 0L43.2 125.4L36.9 126.6Z" fill="#5575A3"/>
<path fill-rule="evenodd" clip-rule="evenodd" d="M0 135.1C0 135.1 42.1 115.9 130 123.5C130 123.5 126.8 162.2 83.6 160.4C83.6 160.4 116.9 151.6 114.3 124.4C114.3 124.5 52.5 123.8 0 135.1Z" fill="#5575A3"/>
<path d="M7.2 220.9H15.5C17.6 220.9 18.6 219.9 18.6 217.8V149.1C18.6 148 18.3 147.2 17.8 146.7C17.3 146.2 16.5 145.9 15.4 145.9H7.2V142.2H44.9C49.4 142.2 53.7 143 57.7 144.7C61.7 146.4 64.8 148.7 67.2 151.7C69.6 154.7 70.8 158 70.8 161.8C70.8 167 69 171.4 65.5 174.8C62 178.2 57.8 180.4 53.1 181.4V181.9C56.3 182.1 59.4 183.1 62.5 184.8C65.6 186.5 68.2 188.9 70.2 191.9C72.2 194.9 73.3 198.3 73.3 202.1C73.3 206.8 72.1 210.9 69.6 214.2C67.1 217.6 63.8 220.2 59.7 221.9C55.6 223.6 51 224.5 46.1 224.5H7.1V220.9H7.2ZM44.4 179.8C50.6 179.8 54.9 178.2 57.2 175C59.5 171.8 60.6 167.5 60.6 162C60.6 157.4 59.1 153.6 56.2 150.6C53.3 147.6 49.6 146.1 45.3 146.1H32.3C31.2 146.1 30.4 146.4 29.9 146.9C29.4 147.4 29.1 148.2 29.1 149.3V179.9H44.4V179.8ZM44.9 220.9C49.6 220.9 53.5 219.5 56.5 216.7C59.5 213.9 61.1 209 61.1 202.2C61.1 195.3 59.6 190.5 56.5 187.7C53.5 184.9 49.6 183.5 44.9 183.5H29.3V217.8C29.3 219.9 30.3 220.9 32.4 220.9H44.9Z" fill="white"/>
<path d="M84.1 223C81.1 221 79.6 217.4 79.6 212.4C79.6 208.5 80.6 205.4 82.6 203.1C84.6 200.9 86.9 199.3 89.6 198.3C92.3 197.3 95.5 196.5 99.3 195.8L109.9 193.8V184C109.9 176.8 106.3 173.2 99.1 173.2C96.5 173.2 94.1 173.9 91.9 175.2C89.7 176.6 88.7 178.1 88.7 179.8C88.7 180.6 88.8 181.1 89 181.5C89.2 181.7 89.4 182 89.8 182.2C90.1 182.4 90.5 182.6 90.8 182.7C92.2 183.1 93.2 183.6 94 184.3C94.7 185 95.1 186 95.1 187.2C95.1 188.8 94.6 190 93.7 190.7C92.7 191.4 91.5 191.7 90.1 191.7C88.4 191.7 86.9 191 85.5 189.7C84.1 188.4 83.4 186.5 83.4 184C83.4 181.1 84.2 178.7 85.8 176.6C87.4 174.5 89.4 173 91.9 171.9C94.4 170.9 97 170.3 99.6 170.3C104.7 170.3 109.1 171.6 112.8 174.3C116.5 177 118.4 181.1 118.4 186.7V215.1C118.4 219 119.6 220.9 122 220.9C123.9 220.9 125.3 219.8 126.2 217.5C127 215.3 127.5 212.5 127.5 209.3H129.6C129.6 213.9 128.9 217.8 127.6 221C126.3 224.2 123.8 225.7 120.4 225.7C117.1 225.7 114.6 224.7 112.9 222.8C111.2 220.8 110.3 218.1 110.2 214.6L109.6 214.4C108.4 217.1 106.6 219.7 104 222.1C101.4 224.5 98.4 225.7 94.9 225.7C90.6 226 87.1 225 84.1 223ZM104.7 217.8C106.7 215.1 108.4 211.6 110 207.3V196.3L99.9 198.5C96.2 199.3 93.5 200.8 91.9 203.1C90.2 205.4 89.4 208.6 89.4 212.8C89.4 216.3 90.1 218.8 91.6 220C93.1 221.3 94.7 221.9 96.6 221.9C100 221.9 102.7 220.5 104.7 217.8Z" fill="#2C3C54"/>
<path d="M131.2 221.9H137.2C138.1 221.9 138.8 221.7 139.2 221.3C139.6 220.9 139.8 220.3 139.8 219.3V147.6C139.8 146.7 139.6 146 139.2 145.6C138.8 145.2 138.2 145 137.2 145H131.2V142.2H148.1V219.2C148.1 220.1 148.3 220.8 148.7 221.2C149.1 221.6 149.7 221.8 150.7 221.8H156.7V224.6H131.3V221.9H131.2Z" fill="#2C3C54"/>
<path d="M160.2 221.9H166.2C167.1 221.9 167.8 221.7 168.2 221.3C168.6 220.9 168.8 220.3 168.8 219.3V147.6C168.8 146.7 168.6 146 168.2 145.6C167.8 145.2 167.2 145 166.2 145H160.2V142.2H177V219.2C177 220.1 177.2 220.8 177.6 221.2C178 221.6 178.6 221.8 179.6 221.8H185.6V224.6H160.2V221.9Z" fill="#2C3C54"/>
<path d="M194.2 223C191.2 221 189.7 217.4 189.7 212.4C189.7 208.5 190.7 205.4 192.7 203.1C194.7 200.9 197 199.3 199.7 198.3C202.4 197.3 205.6 196.5 209.4 195.8L220 193.8V184C220 176.8 216.4 173.2 209.2 173.2C206.6 173.2 204.2 173.9 202 175.2C199.8 176.6 198.8 178.1 198.8 179.8C198.8 180.6 198.9 181.1 199.1 181.5C199.3 181.7 199.5 182 199.9 182.2C200.2 182.4 200.6 182.6 200.9 182.7C202.3 183.1 203.3 183.6 204.1 184.3C204.8 185 205.2 186 205.2 187.2C205.2 188.8 204.7 190 203.8 190.7C202.8 191.4 201.6 191.7 200.2 191.7C198.5 191.7 197 191 195.6 189.7C194.2 188.4 193.5 186.5 193.5 184C193.5 181.1 194.3 178.7 195.9 176.6C197.5 174.5 199.5 173 202 171.9C204.5 170.9 207.1 170.3 209.7 170.3C214.8 170.3 219.2 171.6 222.9 174.3C226.6 177 228.5 181.1 228.5 186.7V215.1C228.5 219 229.7 220.9 232.1 220.9C234 220.9 235.4 219.8 236.3 217.5C237.1 215.3 237.6 212.5 237.6 209.3H239.7C239.7 213.9 239 217.8 237.7 221C236.4 224.2 233.9 225.7 230.5 225.7C227.2 225.7 224.7 224.7 223 222.8C221.3 220.9 220.4 218.1 220.3 214.6L219.7 214.4C218.5 217.1 216.7 219.7 214.1 222.1C211.5 224.5 208.5 225.7 205 225.7C200.7 226 197.2 225 194.2 223ZM214.8 217.8C216.8 215.1 218.5 211.6 220.1 207.3V196.3L210 198.5C206.3 199.3 203.6 200.8 202 203.1C200.3 205.4 199.5 208.6 199.5 212.8C199.5 216.3 200.2 218.8 201.7 220C203.2 221.3 204.8 221.9 206.7 221.9C210.1 221.9 212.8 220.5 214.8 217.8Z" fill="#2C3C54"/>
<path d="M246.5 203.1H248.6L252.9 212.2C257.1 219.5 262.5 223.2 269.1 223.2C272.6 223.2 275.3 222.3 277 220.6C278.7 218.9 279.6 216.5 279.6 213.5C279.6 211.7 278.9 210.1 277.6 208.7C276.3 207.3 274.5 206.1 272.2 205.3L259 200C254.8 198.3 251.6 196.3 249.2 193.9C246.8 191.5 245.6 188.5 245.6 184.8C245.6 180.1 247.1 176.6 250 174.2C252.9 171.8 256.6 170.6 261.1 170.6C263.3 170.6 265.4 171 267.4 171.7C269.4 172.4 271 173.3 272.3 174.3C274 175.5 275.3 176.1 276.1 176.1C277.1 176.1 277.7 175.4 278 174L278.2 171.7H280.3V189.3H278.2L276.6 185.3C274.8 180.9 272.5 177.8 269.6 176C266.7 174.2 263.8 173.3 261 173.3C258.1 173.3 255.8 174 253.9 175.4C252 176.8 251.1 178.8 251.1 181.4C251.1 183.6 252 185.5 253.8 186.9C255.6 188.3 258.1 189.7 261.3 191L273.8 196.2C277.5 197.7 280.3 199.6 282.1 201.8C284 204 284.9 207.1 284.9 211C284.9 216.2 283.4 220 280.5 222.4C277.6 224.8 273.7 226 268.9 226C266 226 263.7 225.6 262 224.8C260.2 224 258.5 223 256.8 221.7C256.1 221.2 255.4 220.7 254.7 220.3C254 219.9 253.4 219.7 252.8 219.7C251 219.7 249.7 221 249 223.6L248.5 225.9H246.4V203.1H246.5Z" fill="#2C3C54"/>
<path d="M301.1 222.3C298.8 219.8 297.7 216.5 297.7 212.2V175.1H289.1V171.9H291.6C295.1 171.9 297.8 170 299.8 166.3C301.8 162.6 302.7 158.4 302.7 153.9V149.7H305.9V171.9H320.2V175.1H306V212.8C306 215.1 306.5 217 307.4 218.6C308.3 220.1 309.9 220.9 312.1 220.9C317.6 220.9 320.3 216.3 320.3 207H322.4C322.4 212.2 321.6 216.6 320.1 220.4C318.6 224.1 315.1 226 309.6 226C306.2 226 303.3 224.8 301.1 222.3Z" fill="#2C3C54"/>
<path d="M36.7 318H45C47.1 318 48.1 317 48.1 314.9V246.2C48.1 245.1 47.8 244.3 47.3 243.8C46.8 243.3 46 243 44.9 243H36.6V239.3H74.3C78.8 239.3 83.1 240.1 87.1 241.8C91.1 243.5 94.2 245.8 96.6 248.8C99 251.8 100.2 255.1 100.2 258.9C100.2 264.1 98.4 268.5 94.9 271.9C91.4 275.3 87.2 277.5 82.5 278.5V279C85.7 279.2 88.8 280.2 91.9 281.9C95 283.6 97.6 286 99.6 289C101.6 292 102.7 295.4 102.7 299.2C102.7 303.9 101.5 308 99 311.3C96.5 314.7 93.2 317.3 89.1 319C85 320.7 80.4 321.6 75.5 321.6H36.5V318H36.7ZM74 276.9C80.2 276.9 84.5 275.3 86.8 272.1C89.1 268.9 90.2 264.6 90.2 259.1C90.2 254.5 88.7 250.7 85.8 247.7C82.9 244.7 79.2 243.2 74.9 243.2H61.9C60.8 243.2 60 243.5 59.5 244C59 244.5 58.7 245.3 58.7 246.4V277H74V276.9ZM74.4 318C79.1 318 83 316.6 86 313.8C89 311 90.6 306.1 90.6 299.3C90.6 292.4 89.1 287.6 86 284.8C83 282 79.1 280.6 74.4 280.6H58.8V314.9C58.8 317 59.8 318 61.9 318H74.4Z" fill="white"/>
<path d="M120.6 319.4C117.1 316.9 114.3 313.5 112.2 309.3C110.2 305.1 109.1 300.4 109.1 295.4C109.1 290.4 110.1 285.8 112.2 281.5C114.2 277.3 117 273.9 120.6 271.4C124.1 268.9 128 267.6 132.3 267.6C136.5 267.6 140.4 268.9 144 271.4C147.5 273.9 150.3 277.3 152.4 281.5C154.4 285.7 155.5 290.4 155.5 295.4C155.5 300.4 154.5 305 152.4 309.3C150.4 313.5 147.6 316.9 144 319.4C140.5 321.9 136.6 323.2 132.3 323.2C128 323.1 124.1 321.9 120.6 319.4ZM142.2 313.8C144.2 309.4 145.2 303.3 145.2 295.4C145.2 287.5 144.2 281.3 142.2 277C140.2 272.6 136.9 270.5 132.3 270.5C127.7 270.5 124.4 272.7 122.4 277C120.4 281.4 119.4 287.5 119.4 295.4C119.4 303.3 120.4 309.5 122.4 313.8C124.4 318.2 127.7 320.3 132.3 320.3C136.9 320.3 140.2 318.2 142.2 313.8Z" fill="#2C3C54"/>
<path d="M174.1 319.4C170.6 316.9 167.8 313.5 165.7 309.3C163.7 305.1 162.6 300.4 162.6 295.4C162.6 290.4 163.6 285.8 165.7 281.5C167.7 277.3 170.5 273.9 174.1 271.4C177.6 268.9 181.5 267.6 185.8 267.6C190 267.6 193.9 268.9 197.5 271.4C201 273.9 203.8 277.3 205.9 281.5C207.9 285.7 209 290.4 209 295.4C209 300.4 208 305 205.9 309.3C203.9 313.5 201.1 316.9 197.5 319.4C194 321.9 190.1 323.2 185.8 323.2C181.5 323.1 177.6 321.9 174.1 319.4ZM195.7 313.8C197.7 309.4 198.7 303.3 198.7 295.4C198.7 287.5 197.7 281.3 195.7 277C193.7 272.6 190.4 270.5 185.8 270.5C181.2 270.5 177.9 272.7 175.9 277C173.9 281.4 172.9 287.5 172.9 295.4C172.9 303.3 173.9 309.5 175.9 313.8C177.9 318.2 181.2 320.3 185.8 320.3C190.4 320.3 193.7 318.2 195.7 313.8Z" fill="#2C3C54"/>
<path d="M213.9 319H219.9C220.8 319 221.5 318.8 221.9 318.4C222.3 318 222.5 317.4 222.5 316.4V244.7C222.5 243.8 222.3 243.1 221.9 242.7C221.5 242.3 220.9 242.1 219.9 242.1H213.9V239.3H230.8V298.2L246.5 279C247.3 278.1 247.9 277.3 248.2 276.8C248.5 276.3 248.6 275.6 248.6 274.7C248.6 273.7 248.2 272.9 247.5 272.4C246.8 271.9 245.8 271.6 244.7 271.6H241.7V269H265.3V271.8H261.6C259.5 271.8 257.7 272.3 256 273.4C254.4 274.5 252.5 276.3 250.4 278.8L241.6 289.6L259.6 315.3C260.5 316.6 261.3 317.6 262 318.1C262.7 318.6 263.7 319 264.9 319H267.2V321.8H242.7V319H245.7C246.7 319 247.5 318.8 248 318.5C248.5 318.2 248.8 317.6 248.8 316.7C248.8 315.9 248.7 315.2 248.5 314.6C248.3 314.1 247.9 313.4 247.3 312.5L236 296.3L230.7 302.8V316.4C230.7 317.3 230.9 318 231.3 318.4C231.7 318.8 232.3 319 233.3 319H237V321.8H213.9V319Z" fill="#2C3C54"/>
<path d="M273.9 300.2H276L280.3 309.3C284.5 316.6 289.9 320.3 296.5 320.3C300 320.3 302.7 319.4 304.4 317.7C306.1 316 307 313.6 307 310.6C307 308.8 306.3 307.2 305 305.8C303.7 304.4 301.9 303.2 299.6 302.4L286.4 297.1C282.2 295.4 279 293.4 276.6 291C274.2 288.6 273 285.6 273 281.9C273 277.2 274.5 273.7 277.4 271.3C280.3 268.9 284 267.7 288.5 267.7C290.7 267.7 292.8 268.1 294.8 268.8C296.8 269.5 298.4 270.4 299.7 271.4C301.4 272.6 302.7 273.2 303.5 273.2C304.5 273.2 305.1 272.5 305.4 271.1L305.6 268.8H307.7V286.4H305.6L304 282.4C302.2 278 299.9 274.9 297 273.1C294.1 271.3 291.2 270.4 288.4 270.4C285.5 270.4 283.2 271.1 281.3 272.5C279.4 273.9 278.5 275.9 278.5 278.5C278.5 280.7 279.4 282.6 281.2 284C283 285.4 285.5 286.8 288.7 288.1L301.2 293.3C304.9 294.8 307.7 296.7 309.5 298.9C311.4 301.1 312.3 304.2 312.3 308.1C312.3 313.3 310.8 317.1 307.9 319.5C305 321.9 301.1 323.1 296.3 323.1C293.4 323.1 291.1 322.7 289.4 321.9C287.6 321.1 285.9 320.1 284.2 318.8C283.5 318.3 282.8 317.8 282.1 317.4C281.4 317 280.8 316.8 280.2 316.8C278.4 316.8 277.1 318.1 276.4 320.7L275.9 323H273.8V300.2H273.9Z" fill="#2C3C54"/>
</g>
<defs>
<clipPath id="clip0_2_3">
<rect width="322.4" height="330.4" fill="white"/>
</clipPath>
</defs>
</svg>
