<?xml version="1.0" standalone="no"?>
<!DOCTYPE svg PUBLIC "-//W3C//DTD SVG 20010904//EN"
 "http://www.w3.org/TR/2001/REC-SVG-20010904/DTD/svg10.dtd">
<svg version="1.0" xmlns="http://www.w3.org/2000/svg"
 width="80.000000pt" height="80.000000pt" viewBox="0 0 80.000000 80.000000"
 preserveAspectRatio="xMidYMid meet">
<metadata>
Created by potrace 1.14, written by Peter Selinger 2001-2017
</metadata>
<g transform="translate(0.000000,80.000000) scale(0.100000,-0.100000)"
fill="#000000" stroke="none">
<path d="M259 569 c-1 -101 -2 -206 -4 -234 -1 -27 -3 -73 -4 -101 -1 -48 -3
-52 -30 -57 -16 -3 -40 -9 -54 -12 -24 -6 -26 -3 -37 48 -17 73 -2 114 59 169
47 43 47 43 34 76 -11 28 -16 31 -33 22 -22 -12 -60 -61 -84 -107 -23 -45 -21
-130 4 -171 26 -42 25 -46 -7 -60 -16 -6 -19 -9 -8 -7 21 5 133 22 195 30 19
2 106 8 193 11 l157 7 0 -22 c0 -49 -43 -102 -115 -140 l-40 -22 50 7 c81 10
129 43 165 114 22 43 26 69 10 71 -5 1 -14 3 -20 4 -5 1 -59 3 -119 4 l-110 1
35 57 c39 66 48 102 42 182 -6 79 -54 175 -126 251 -32 33 -62 60 -68 60 -6 0
-18 -26 -28 -57 l-19 -58 29 -20 c59 -42 117 -108 141 -161 28 -61 27 -86 -4
-196 -15 -57 -16 -58 -52 -59 -20 0 -55 -2 -78 -5 l-43 -6 -1 44 c0 23 -2 72
-4 108 -2 36 -6 141 -9 234 -3 93 -8 171 -11 174 -3 3 -5 -78 -6 -179z"/>
</g>
</svg>
